# xmcd CD database file
#
# Track frame offsets:
#	187
#	18702
#	40657
#	59554
#	76924
#	101177
#	121852
#	144739
#	164697
#	183952
#	206712
#	233387
#
# Disc length: 3338 seconds
#
# Revision: 3
# Processed by: cddbd v1.5PL3 Copyright (c) Steve Scherf et al.
# Submitted via: CDex 1.50
#
DISCID=a30d080c
DTITLE=TRIXTER - Hear!
DYEAR=1992
DGENRE=Hard Rock
TTITLE0=Road Of A Thousand Dreams
TTITLE1=Damn Good
TTITLE2=Rockin' Horse
TTITLE3=Power Of Love
TTITLE4=Runaway Train
TTITLE5=Bloodrock
TTITLE6=Waiting In That Line
TTITLE7=Nobody's A Hero
TTITLE8=Wild Is The Heart
TTITLE9=What It Takes
TTITLE10=As The Candle Burns
TTITLE11=On The Road Again
EXTD=YEAR: 1992
EXTT0=
EXTT1=
EXTT2=
EXTT3=
EXTT4=
EXTT5=
EXTT6=
EXTT7=
EXTT8=
EXTT9=
EXTT10=
EXTT11=
PLAYORDER=
